Coordinates
version=1
nRows=60
nColumns=12
inDegrees=yes

Units are S.I. units (second, meters, Newtons, ...)
Angles are in degrees

endheader
time	SC_y	SC_z	SC_x	AC_y	AC_z	AC_x	GH_y	GH_z	GH_yy	EL_x	PS_y
       0.0              -22.98          19.72          8.072          40.43          2.999          19.44          122.9          23.78         -34.02          22.59          106.8
    0.0429              -22.98          19.72          8.081          40.43          2.998          19.43          122.9          23.78         -34.04          22.59          106.8
    0.0858              -22.98          19.72          8.092          40.43          2.997          19.43          123.0          23.78         -34.06          22.59          106.8
    0.1287              -22.97          19.73          8.102          40.43          2.996          19.43          123.0          23.79         -34.08           22.6          106.8
    0.1716              -22.97          19.73          8.114          40.43          2.994          19.42          123.0          23.79          -34.1           22.6          106.8
    0.2145              -22.97          19.73          8.126          40.43          2.993          19.42          123.0           23.8         -34.12           22.6          106.8
    0.2574              -22.97          19.73           8.14          40.43          2.991          19.42          123.0           23.8         -34.15           22.6          106.8
    0.3003              -22.97          19.74          8.154          40.43           2.99          19.41          123.0          23.81         -34.17           22.6          106.8
    0.3432              -22.96          19.74          8.169          40.43          2.988          19.41          123.0          23.81          -34.2           22.6          106.8
    0.3861              -22.96          19.74          8.185          40.42          2.986          19.41          123.0          23.82         -34.23           22.6          106.8
     0.429              -22.96          19.74          8.202          40.42          2.984           19.4          123.0          23.83         -34.26           22.6          106.8
    0.4719              -22.95          19.75          8.221          40.42          2.982           19.4          123.1          23.84          -34.3           22.6          106.8
    0.5148              -22.95          19.75          8.241          40.42          2.979          19.39          123.1          23.84         -34.34           22.6          106.8
    0.5577              -22.95          19.75          8.263          40.42          2.977          19.38          123.1          23.85         -34.38          22.61          106.8
    0.6006              -22.94          19.76          8.287          40.42          2.974          19.38          123.1          23.86         -34.42          22.61          106.8
    0.6435              -22.94          19.76          8.312          40.41          2.971          19.37          123.1          23.87         -34.47          22.61          106.7
    0.6864              -22.93          19.77           8.34          40.41          2.968          19.36          123.2          23.88         -34.52          22.61          106.7
    0.7293              -22.93          19.77          8.371          40.41          2.964          19.35          123.2           23.9         -34.58          22.61          106.7
    0.7722              -22.92          19.78          8.404          40.41           2.96          19.35          123.2          23.91         -34.64          22.62          106.7
    0.8151              -22.92          19.79           8.44           40.4          2.956          19.34          123.2          23.92         -34.71          22.62          106.7
     0.858              -22.91          19.79           8.48           40.4          2.951          19.32          123.3          23.94         -34.78          22.62          106.7
    0.9009               -22.9           19.8          8.524          40.39          2.946          19.31          123.3          23.96         -34.86          22.62          106.7
    0.9438              -22.89          19.81          8.572          40.39           2.94           19.3          123.3          23.98         -34.95          22.63          106.7
    0.9867              -22.88          19.82          8.626          40.39          2.934          19.28          123.4           24.0         -35.05          22.63          106.7
      1.03              -22.87          19.83          8.685          40.38          2.927          19.27          123.4          24.02         -35.16          22.63          106.7
     1.072              -22.86          19.84          8.752          40.37          2.919          19.25          123.5          24.05         -35.29          22.64          106.7
     1.115              -22.85          19.85          8.826          40.37           2.91          19.23          123.5          24.08         -35.42          22.64          106.7
     1.158              -22.84          19.87           8.91          40.36            2.9          19.21          123.6          24.12         -35.58          22.65          106.7
     1.201              -22.82          19.89          9.005          40.35          2.889          19.18          123.7          24.15         -35.76          22.65          106.7
     1.244               -22.8           19.9          9.112          40.34          2.876          19.15          123.8           24.2         -35.96          22.66          106.7
     1.287              -22.78          19.93          9.235          40.33          2.862          19.12          123.9          24.25         -36.18          22.67          106.7
      1.33              -22.76          19.95          9.376          40.32          2.845          19.08          124.0           24.3         -36.45          22.68          106.7
     1.373              -22.73          19.98          9.538           40.3          2.826          19.03          124.1          24.37         -36.75          22.69          106.7
     1.416               -22.7          20.01          9.727          40.29          2.804          18.98          124.3          24.45          -37.1           22.7          106.7
     1.459              -22.66          20.05          9.948          40.27          2.778          18.92          124.4          24.54         -37.51          22.72          106.7
     1.501              -22.61           20.1          10.21          40.24          2.747          18.85          124.7          24.64          -38.0          22.73          106.7
     1.544              -22.56          20.15          10.52          40.22           2.71          18.76          124.9          24.77         -38.57          22.75          106.7
     1.587               -22.5          20.22          10.89          40.18          2.667          18.66          125.2          24.92         -39.26          22.78          106.7
      1.63              -22.42           20.3          11.34          40.14          2.614          18.54          125.6           25.1          -40.1          22.81          106.7
     1.673              -22.32           20.4          11.89           40.1          2.549          18.38          126.0          25.32         -41.12          22.84          106.6
     1.716              -22.21          20.52          12.56          40.03          2.469           18.2          126.5           25.6         -42.38          22.89          106.6
     1.759              -22.06          20.67          13.41          39.96          2.369          17.96          127.2          25.94         -43.95          22.94          106.6
     1.802              -21.88          20.85          14.47          39.87          2.244          17.67          128.1          26.37         -45.93          23.01          106.6
     1.845              -21.65          21.09          15.82          39.74          2.084           17.3          129.2          26.92         -48.45           23.1          106.5
     1.888              -21.35           21.4          17.56          39.59           1.88          16.82          130.5          27.63         -51.67          23.22          106.5
      1.93              -20.97          21.79          19.78          39.39          1.618          16.21          132.3          28.53          -55.8          23.36          106.4
     1.973              -20.48           22.3          22.61          39.14          1.283          15.43          134.6          29.68         -61.08          23.55          106.3
     2.016              -19.87          22.93          26.18          38.82         0.8616          14.44          137.4          31.13         -67.71          23.78          106.2
     2.059              -19.12           23.7          30.53          38.44         0.3484          13.24          140.9          32.89          -75.8          24.07          106.0
     2.102              -18.25          24.59          35.57          37.99        -0.2464          11.85          145.0          34.94         -85.18           24.4          105.9
     2.145              -17.32          25.55          41.02           37.5        -0.8904          10.35          149.3          37.15         -95.33          24.76          105.7
     2.188              -16.38          26.52          46.48          37.02         -1.534          8.845          153.7          39.37         -105.5          25.12          105.5
     2.231              -15.51          27.41          51.51          36.57         -2.129          7.456          157.7          41.41         -114.9          25.45          105.4
     2.274              -14.77          28.18          55.86          36.18         -2.642          6.257          161.2          43.18         -122.9          25.73          105.2
     2.317              -14.15          28.81          59.43          35.86         -3.063          5.273          164.1          44.62         -129.6          25.97          105.1
     2.359              -13.67          29.32          62.27          35.61         -3.398          4.491          166.4          45.78         -134.9          26.16          105.0
     2.402              -13.28          29.71          64.49          35.41         -3.661          3.878          168.1          46.68         -139.0           26.3          104.9
     2.445              -12.99          30.02          66.22          35.26         -3.865          3.401          169.5          47.38         -142.2          26.42          104.9
     2.488              -12.75          30.26          67.57          35.14         -4.024          3.028          170.6          47.93         -144.7           26.5          104.8
     2.531              -12.57          30.44          68.63          35.05          -4.15          2.735          171.5          48.36         -146.7          26.57          104.8
